<svg id="Layer_1" data-name="Layer 1" xmlns="http://www.w3.org/2000/svg" xmlns:xlink="http://www.w3.org/1999/xlink" viewBox="0 0 2078 1530.21"><defs><style>.cls-1{fill:#fff;}.cls-2{fill:#00bdff;}.cls-3{fill:#003a5d;}.cls-4{opacity:0.77;}.cls-5{fill:url(#linear-gradient);}.cls-6{fill:url(#linear-gradient-2);}.cls-7{fill:url(#linear-gradient-3);}</style><linearGradient id="linear-gradient" x1="1232.18" y1="177.6" x2="1533.43" y2="737.08" gradientUnits="userSpaceOnUse"><stop offset="0" stop-color="#fff"/><stop offset="1" stop-color="#00bdff" stop-opacity="0"/></linearGradient><linearGradient id="linear-gradient-2" x1="1236.48" y1="57.93" x2="1138.62" y2="784.59" xlink:href="#linear-gradient"/><linearGradient id="linear-gradient-3" x1="605.3" y1="350.55" x2="746.04" y2="862.83" xlink:href="#linear-gradient"/></defs><rect class="cls-1" width="2078" height="1530.21" transform="translate(2078 1530.21) rotate(180)"/><path class="cls-2" d="M358.93,1083.54a427.13,427.13,0,0,0-58.2-3.54c-37.81,0-75.63,9.16-75.63,66.17v92.76c0,57.31,37.82,66.17,75.63,66.17,28.65,0,47-2.06,58.2-3.54,3.84-.59,5.9-2.37,5.9-5.91v-36a5.92,5.92,0,0,0-5.9-5.91H299.25c-10.63,0-14.18-3.25-14.18-14.77v-24.52h72.67a5.93,5.93,0,0,0,5.91-5.91v-34.86a5.92,5.92,0,0,0-5.91-5.9H285.07v-21.57c0-11.52,3.55-14.77,14.18-14.77h59.68a5.92,5.92,0,0,0,5.9-5.91v-36C364.83,1085.91,362.77,1084.13,358.93,1083.54Z"/><path class="cls-2" d="M517.27,1085.61c-7.69-2.66-22.75-5.32-41.36-5.32-54.36,0-91,29.54-91,97.19v30.43c0,67.65,36.63,97.19,91,97.19,18.61,0,33.67-2.66,41.36-5.31,4.72-1.48,6.49-2.66,6.49-6.5v-37.82c0-3.54-.88-6.2-6.2-5.61a331,331,0,0,1-41.36,2.66c-16.25,0-30.42-7.39-30.42-44.61v-30.43c0-37.51,14.47-44.6,30.42-44.6,16.84,0,29.25,1.47,41.36,2.66,5,.59,6.2-1.48,6.2-5.62v-37.81C523.76,1088,522,1087.09,517.27,1085.61Z"/><path class="cls-2" d="M698.16,1127.85c-49.34,0-77.7,28.07-77.7,80.06v17.14c0,52,28.36,80,77.7,80s77.4-28.06,77.4-80v-17.14C775.56,1155.92,747.49,1127.85,698.16,1127.85Zm21,97.2c0,23.63-7.38,32.79-21,32.79s-21.27-9.46-21.27-32.79v-17.14c0-23.63,7.68-32.49,21.27-32.49s21,9.15,21,32.49Z"/><path class="cls-2" d="M594.47,1080H549.86c-3.25,0-6.5,2.66-6.5,5.91V1298.6a7,7,0,0,0,6.5,6.5h44.61c3.25,0,5.91-3.25,5.91-6.5V1085.91A5.93,5.93,0,0,0,594.47,1080Z"/><path class="cls-2" d="M1117.35,1080h-44a5.93,5.93,0,0,0-5.91,5.91v44c-6.2-.88-15.36-2.07-20.09-2.07-52.28,0-77.69,30.14-77.69,77.11v23c0,49.93,29.25,77.1,77.69,77.1,26.59,0,50.82-4.13,66.18-7.38,8.86-2.07,10.34-4.43,10.34-9.46V1085.91C1123.85,1082.66,1120.6,1080,1117.35,1080Zm-49.93,177a121.2,121.2,0,0,1-20.09,1.48c-16.54,0-21.27-12.71-21.27-30.43v-23c0-17.43,4.73-30.13,21.27-30.13,7.09,0,14.18.59,20.09,1.18Z"/><path class="cls-2" d="M943.05,1127.85H898.74c-3.54,0-5.91,3.25-5.91,6.5v117.28c-6.79,3.55-15.36,6.5-22.15,6.5-14.77,0-18.32-5.32-18.32-21V1134.35a6.76,6.76,0,0,0-6.5-6.5H801.55c-3.54,0-5.91,3.25-5.91,6.5v102.81c0,35.15,10.64,67.94,54.36,67.94,21.86,0,36-7.38,46.67-15.36v9.45a5.93,5.93,0,0,0,5.91,5.91h41.07a5.92,5.92,0,0,0,5.9-5.91V1134.35A6.76,6.76,0,0,0,943.05,1127.85Z"/><path class="cls-3" d="M1513.18,1127.85c-48.44,0-78.58,28.36-78.58,80.36v19.49c0,56.43,36.93,77.4,76.81,77.4,24.82,0,45.2-2.95,64.11-9.15,4.72-1.48,5.91-3.55,5.91-8.28v-26.58c0-4.43-1.78-5.32-6.5-5-11.52.89-40.48,2.37-56.13,2.37-21.57,0-28.07-9.75-28.07-25.41v-.59h91.88a6.14,6.14,0,0,0,6.2-6.5v-17.72C1588.81,1160.65,1564.88,1127.85,1513.18,1127.85Zm21.27,73.27h-43.72v-.89c0-17.72,7.68-28.36,21.86-28.36,14.77,0,21.86,10.64,21.86,28.36Z"/><path class="cls-3" d="M1408,1080h-44c-3.25,0-6.5,3-6.5,6.2v35.45c0,3.25,3.25,6.2,6.5,6.2h44c3.25,0,6.5-2.95,6.5-6.2V1086.2C1414.52,1083,1411.27,1080,1408,1080Z"/><path class="cls-3" d="M1408,1149.23h-44c-3.25,0-6.5,3-6.5,6.21V1298.6a7,7,0,0,0,6.5,6.5h44a7,7,0,0,0,6.5-6.5V1155.44C1414.52,1152.19,1411.27,1149.23,1408,1149.23Z"/><path class="cls-3" d="M1332.53,1080h-51.11c-4.14,0-5.61,2.66-6.2,5.61l-.56,2.93v0l-31,163.36c-.57,2.54-.88,4-3,4.11h0c-2.08-.13-2.39-1.57-3-4.11l-31-163.37v0l-.56-2.93c-.59-2.95-2.07-5.61-6.2-5.61h-51.11c-4.43,0-5.32,2.66-4.72,5.91l.45,2a7.13,7.13,0,0,0,.11.9l39.58,180.79c6.48,29.15,28.22,35.41,56.43,35.45h0c28.22,0,50-6.3,56.44-35.44l39.58-180.8a7,7,0,0,0,.11-.89l.45-2.06C1337.84,1082.66,1337,1080,1332.53,1080Z"/><path class="cls-3" d="M1852.87,1132.35c.33-3.21-2.09-4.5-4.54-4.5h-47.27c-3,0-4.43,1.48-5,5l-.76,5.29v0l-14.48,101.33c-.29,1.77-1.18,2.36-2.06,2.36s-1.78-.59-2.37-2.36L1759.24,1179c-2.07-7.09-5.32-12.11-16.54-12.11h-23.57c-11.23,0-14.48,5-16.55,12.11l-17.13,60.56c-.59,1.77-1.48,2.36-2.36,2.36s-1.78-.59-2.07-2.36l-14.48-101.33v0l-.76-5.29c-.59-3.55-2.07-5-5-5h-47.27c-2.45,0-4.87,1.29-4.53,4.5h0l.88,6.13,26,140.32c3.54,19.2,11.82,26.29,25.11,26.29h26.88c13.59,0,20.39-9.45,25.11-25.4l16-54.06c.29-1.46,1.15-2.05,2-2.07h0c.87,0,1.74.61,2,2.07l16,54.06c4.73,16,11.52,25.4,25.11,25.4h26.88c13.3,0,21.57-7.09,25.11-26.29l26-140.32.88-6.13Z"/><path class="cls-2" d="M1641.05,589.17a231.82,231.82,0,0,0-128.16-79.31,322.51,322.51,0,0,0-205.86-178l-2-.56-1.58,1.31a370.48,370.48,0,0,0,46.2,604.36,231,231,0,0,0,112.45,29.23c127.35,0,230.95-103.61,230.95-230.95A231.36,231.36,0,0,0,1641.05,589.17Z"/><path class="cls-2" d="M1470.33,958.29a362.57,362.57,0,0,1-297.15-158.35l-.52-.77c-.75-1.1-1.48-2.2-2.21-3.31l-1.68-2.54q-1.24-1.91-2.46-3.83c-.4-.62-.78-1.24-1.17-1.86l-.44-.71c-1.45-2.33-2.87-4.68-4.28-7.06l-.49-.84c-.34-.55-.67-1.11-1-1.67-.7-1.2-1.38-2.41-2.06-3.61l-.14-.26c-.54-1-1.07-1.9-1.6-2.86-.7-1.27-1.4-2.55-2.09-3.84-.48-.89-1-1.78-1.42-2.68l-.18-.35c-1-2-2-3.92-3-5.9l-.32-.64c-.55-1.09-1.1-2.19-1.63-3.29s-1-2.14-1.53-3.22l-.23-.49c-.53-1.12-1.06-2.24-1.58-3.37s-1.13-2.47-1.68-3.72-1.06-2.41-1.59-3.63l-.4-.92-1.11-2.57q-1.35-3.24-2.66-6.52l-1-2.48-.34-.89c-.52-1.34-1-2.69-1.54-4-.43-1.15-.85-2.31-1.27-3.48-.52-1.42-1-2.85-1.51-4.27l-.32-.91-.78-2.27c-.78-2.32-1.53-4.65-2.27-7l-.57-1.88-.31-1q-.72-2.4-1.43-4.8c-.3-1.07-.61-2.15-.91-3.23q-.68-2.43-1.32-4.88l-.25-1-.51-1.93q-.95-3.72-1.82-7.45l-.3-1.35-.21-.94c-.42-1.89-.84-3.78-1.23-5.68-.21-1-.41-2-.6-2.95q-.54-2.7-1-5.43l-.17-.88c-.11-.59-.22-1.18-.32-1.77-.46-2.61-.9-5.23-1.3-7.86l-.23-1.6q-.5-3.28-.92-6.58c-.11-.83-.21-1.66-.32-2.49l0-.24c-.23-2-.46-3.9-.66-5.85l-.27-2.53c-.27-2.73-.52-5.46-.73-8.2l-.06-.84q-.27-3.75-.47-7.51c0-.68-.07-1.37-.1-2l0-.54q-.13-3.06-.23-6.13l-.07-2.52c-.07-2.81-.11-5.62-.11-8.45s0-5.59.11-8.37l.06-2.4c.07-2.16.15-4.3.25-6.45l.1-2.11c.14-2.74.31-5.48.52-8.2l.13-1.6c.18-2.24.37-4.48.59-6.71.08-.82.17-1.64.25-2.46.24-2.24.49-4.47.77-6.7l.18-1.53c.34-2.67.72-5.33,1.12-8l.35-2.22c.31-2,.65-4,1-6l.05-.33c.12-.7.25-1.39.37-2.09.48-2.61,1-5.22,1.5-7.82l.16-.73q.74-3.57,1.55-7.12c.16-.71.32-1.42.49-2.13l.1-.4q.66-2.85,1.38-5.67l.58-2.3q1-3.73,2-7.43l.62-2.13q.8-2.78,1.65-5.54l.84-2.73q.88-2.77,1.8-5.53l.68-2.05c.8-2.35,1.63-4.69,2.47-7,.25-.68.5-1.36.76-2l.25-.69c.59-1.57,1.19-3.15,1.8-4.71l.14-.37c.32-.84.65-1.67,1-2.51q1.17-2.92,2.39-5.84c.43-1,.86-2,1.3-3.05.71-1.65,1.42-3.29,2.15-4.93.46-1,.93-2.05,1.4-3.08.63-1.38,1.28-2.75,1.93-4.12l.39-.82c.34-.73.68-1.45,1-2.17q1.51-3.12,3.09-6.21l1.12-2.18.47-.9c.65-1.24,1.3-2.48,2-3.71s1.2-2.22,1.81-3.33,1.32-2.37,2-3.55q1.4-2.49,2.84-4.95l.1-.18c.73-1.24,1.46-2.48,2.2-3.72s1.42-2.32,2.13-3.47c.61-1,1.22-2,1.84-2.95.75-1.19,1.5-2.37,2.26-3.55l1.38-2.1.44-.67c1.4-2.11,2.81-4.2,4.25-6.28l.36-.53,1.32-1.89c.87-1.25,1.76-2.49,2.65-3.72l1.64-2.25c3.1-4.23,6.34-8.45,9.64-12.56l1.43-1.78q1.59-1.95,3.19-3.88l1.18-1.38c2.45-2.9,4.89-5.72,7.27-8.37l.16-.17c1.21-1.35,2.44-2.68,3.67-4l1.16-1.25c4-4.28,8.14-8.5,12.3-12.54l.52-.5c1.38-1.34,2.78-2.67,4.18-4l.72-.66c4.36-4.06,8.88-8.07,13.42-11.91l.5-.42c6.33-5.32,12.92-10.49,19.6-15.37l.26-.2c2.69-2,5.6-4,9.16-6.43a362.94,362.94,0,0,1,50.82-29l7.57-3.54-7.56-3.55A365.61,365.61,0,0,0,1163,225.1a374,374,0,0,0-52.12,3.67A369.25,369.25,0,0,0,826.26,443.38,263.86,263.86,0,0,0,699.42,512.2l-.69.67-.3.91c-12.85,39-49.3,175.36,21.21,294.25,28.19,47.51,65.62,79.34,80.4,90.82A324.11,324.11,0,0,0,829.24,919c-1.22-.62-2.43-1.24-3.64-1.88l-3-1.59c-1.39-.75-2.78-1.49-4.16-2.25l-1.29-.73-.89-.5c-2.7-1.52-5.39-3.07-8-4.62l-.56-.34c-.81-.48-1.63-1-2.44-1.46-1.31-.79-2.61-1.61-3.91-2.42l-3.13-2-3.73-2.41c-1-.64-1.93-1.29-2.89-1.94l-.6-.41q-2.93-2-5.8-4l-.18-.12c-1.08-.76-2.16-1.52-3.23-2.3s-2.27-1.65-3.4-2.48-2.2-1.63-3.29-2.46l-3.26-2.48c-1.27-1-2.52-2-3.77-3q-2.12-1.68-4.21-3.39c-1.41-1.16-2.82-2.32-4.21-3.5-.74-.62-1.48-1.26-2.21-1.89l-.64-.55q-1.74-1.5-3.47-3l-2.78-2.48c-1.28-1.16-2.55-2.32-3.81-3.5l-.86-.8c-.46-.42-.92-.84-1.37-1.27-1.88-1.77-3.73-3.56-5.57-5.37l-1.61-1.62-.66-.66q-1.81-1.83-3.62-3.68l-2.34-2.44c-1.26-1.32-2.5-2.66-3.74-4a362.93,362.93,0,0,1-65.05-392.89l4.86-10.93-10.38,5.95a279.27,279.27,0,0,0-132.35,176C443.28,636.48,384.92,708.16,384.92,791c0,96.57,78.56,175.13,175.13,175.13H985l3.87,0h189.72l3.91,0h287.82l3.91,0v-7.8Z"/><g class="cls-4"><path class="cls-5" d="M1510.12,513.26A318.63,318.63,0,0,0,1306,335.58a368.68,368.68,0,0,0-34,31.9,319.05,319.05,0,0,1,159.86,161.44c102.33,22,179,113,179,221.93,0,96-59.62,178.14-143.86,211.32,123.13-2.6,222.15-103.22,222.15-227C1689.17,626.28,1612.46,535.29,1510.12,513.26Z"/></g><g class="cls-4"><path class="cls-6" d="M1266.35,898.55a368.85,368.85,0,0,1-96.4-96.4h0l-.18-.28q-1.3-1.92-2.59-3.85l-1.69-2.57q-1.26-1.94-2.49-3.88c-.55-.86-1.08-1.73-1.62-2.59q-2.2-3.54-4.32-7.13c-.51-.85-1-1.7-1.51-2.55-.75-1.29-1.49-2.6-2.22-3.9l-1.62-2.89c-.71-1.29-1.42-2.59-2.11-3.89-.55-1-1.09-2-1.62-3.07q-1.56-3-3.06-6c-.66-1.32-1.33-2.64-2-4s-1.19-2.5-1.78-3.75-1.07-2.27-1.6-3.41-1.14-2.49-1.7-3.75-1.07-2.44-1.6-3.67-1-2.35-1.52-3.54c-.92-2.18-1.82-4.38-2.69-6.58-.45-1.13-.89-2.27-1.33-3.41-.52-1.36-1-2.72-1.55-4.08l-1.29-3.52c-.51-1.44-1-2.88-1.52-4.32-.37-1.07-.75-2.14-1.11-3.22-.78-2.34-1.55-4.69-2.29-7.06-.31-1-.59-2-.89-2.93-.49-1.62-1-3.23-1.45-4.86-.31-1.08-.62-2.17-.92-3.26-.46-1.64-.9-3.28-1.34-4.93-.25-1-.51-1.94-.76-2.92q-1-3.75-1.84-7.53c-.18-.77-.34-1.54-.52-2.31q-.64-2.87-1.24-5.74c-.21-1-.41-2-.61-3-.37-1.82-.71-3.65-1.05-5.49-.17-.89-.34-1.78-.49-2.68q-.7-4-1.32-8c-.08-.54-.15-1.08-.23-1.61-.33-2.21-.65-4.43-.94-6.65-.11-.92-.23-1.84-.34-2.76q-.36-3-.68-5.92l-.27-2.55c-.27-2.76-.52-5.52-.73-8.29l-.06-.85q-.29-3.78-.48-7.59c0-.87-.09-1.75-.13-2.62q-.14-3.09-.23-6.19c0-.85-.06-1.7-.07-2.55-.07-2.84-.11-5.68-.11-8.54s0-5.65.1-8.46c0-.81.05-1.62.07-2.43.06-2.17.15-4.34.25-6.51,0-.71.06-1.42.1-2.13.14-2.78.32-5.54.52-8.3,0-.54.09-1.07.14-1.61q.27-3.4.6-6.78c.08-.83.16-1.66.25-2.49q.36-3.39.77-6.77c.07-.52.12-1,.19-1.55.35-2.7.72-5.38,1.13-8.06.11-.75.23-1.5.35-2.24q.48-3.06,1-6.09c.14-.82.28-1.63.43-2.45.48-2.64,1-5.28,1.51-7.9,0-.25.11-.49.16-.74q.75-3.61,1.57-7.2c.19-.85.4-1.71.6-2.56.45-1.92.91-3.82,1.39-5.73.2-.77.39-1.55.59-2.32q1-3.78,2-7.51l.63-2.16c.54-1.87,1.09-3.74,1.66-5.59.29-.93.57-1.85.86-2.76.59-1.88,1.2-3.74,1.82-5.6.23-.69.45-1.38.68-2.07.81-2.38,1.65-4.74,2.5-7.1.34-.92.68-1.84,1-2.76q.88-2.4,1.81-4.77c.38-1,.75-1.94,1.14-2.91.78-2,1.59-3.94,2.41-5.9.43-1,.87-2.06,1.31-3.09.72-1.66,1.44-3.32,2.18-5l1.41-3.12q1-2.08,2-4.17c.48-1,.95-2,1.44-3,1-2.1,2.06-4.2,3.12-6.28.53-1,1.07-2.07,1.61-3.1l2-3.76c.61-1.12,1.21-2.25,1.83-3.36s1.33-2.4,2-3.6q1.41-2.51,2.87-5c.77-1.32,1.54-2.63,2.33-3.94s1.43-2.34,2.15-3.51l1.86-3c.76-1.2,1.52-2.4,2.29-3.59.6-.93,1.22-1.86,1.84-2.79q2.12-3.19,4.29-6.36l1.7-2.45q1.32-1.87,2.67-3.75l1.66-2.27q4.74-6.46,9.75-12.7l1.44-1.8q1.6-2,3.23-3.92c.39-.47.79-.93,1.19-1.4q3.61-4.28,7.35-8.45l.16-.18q1.83-2,3.71-4.05l1.17-1.27q6.08-6.48,12.45-12.68l.51-.49q2.1-2,4.23-4l.72-.67q6.63-6.19,13.57-12.05l.5-.42q9.63-8.08,19.8-15.53l.28-.2c3-2.22,6.14-4.38,9.25-6.5a364.8,364.8,0,0,1,51.37-29.33A363.32,363.32,0,0,0,1163,229a368.64,368.64,0,0,0-51.58,3.63C984.77,250.57,879,333.54,829.08,446.68a437.34,437.34,0,0,0-7.38,80.07c0,240.51,195,435.48,435.49,435.48h213.12v0A364.82,364.82,0,0,1,1266.35,898.55Z"/></g><g class="cls-4"><path class="cls-7" d="M567.52,859.81q1.88,2,3.78,4.05l2.37,2.46q1.82,1.88,3.66,3.72c.77.77,1.52,1.54,2.3,2.3q2.77,2.74,5.62,5.43c.74.71,1.5,1.4,2.26,2.1q1.9,1.77,3.85,3.53l2.81,2.51q1.74,1.55,3.51,3.06c1,.83,1.91,1.65,2.87,2.47,1.41,1.19,2.84,2.36,4.26,3.53s2.83,2.3,4.25,3.43,2.53,2,3.81,3c1.1.85,2.2,1.68,3.3,2.51s2.21,1.66,3.33,2.49,2.28,1.68,3.43,2.51,2.29,1.63,3.45,2.44c1.94,1.36,3.89,2.71,5.86,4,1.17.8,2.35,1.6,3.53,2.38s2.54,1.64,3.81,2.46l3.12,2c1.32.82,2.63,1.64,4,2.44,1,.62,2,1.22,3,1.82q4,2.38,8.08,4.67l2.19,1.24c1.44.8,2.9,1.57,4.35,2.35l2.9,1.54c1.47.77,2.94,1.52,4.42,2.27.93.48,1.87.94,2.81,1.41q7.81,3.87,15.85,7.38c.87.38,1.74.77,2.62,1.14,1.6.69,3.21,1.36,4.83,2l2.69,1.08c1.66.67,3.33,1.34,5,2l1.34.5q5.29,2,10.66,3.86l2.28.78c1.72.58,3.44,1.14,5.17,1.7q2.94.95,5.91,1.83H993.56a366.33,366.33,0,0,1-112.11-17.49q-2.6-.82-5.17-1.69l-2.28-.79q-5.36-1.85-10.66-3.86l-1.34-.5q-2.5-1-5-2l-2.69-1.09q-2.43-1-4.83-2l-2.62-1.14q-8-3.51-15.85-7.39l-2.81-1.4q-2.22-1.12-4.42-2.28l-2.9-1.54q-2.18-1.15-4.35-2.35c-.73-.4-1.46-.83-2.19-1.24q-4.08-2.28-8.08-4.67c-1-.6-2-1.2-3-1.81-1.33-.81-2.64-1.63-4-2.45l-3.12-2c-1.27-.82-2.55-1.63-3.81-2.46s-2.36-1.58-3.53-2.37c-2-1.33-3.92-2.67-5.86-4-1.15-.81-2.31-1.62-3.45-2.44s-2.29-1.67-3.43-2.51-2.23-1.65-3.33-2.49-2.2-1.66-3.3-2.51c-1.28-1-2.54-2-3.81-3s-2.84-2.27-4.24-3.42-2.86-2.35-4.27-3.54c-1-.81-1.92-1.64-2.87-2.47q-1.77-1.51-3.51-3.06c-.94-.83-1.88-1.66-2.81-2.51-1.3-1.16-2.58-2.35-3.85-3.53-.76-.7-1.52-1.39-2.26-2.09q-2.85-2.7-5.62-5.44c-.77-.76-1.53-1.53-2.3-2.3q-1.85-1.85-3.66-3.72l-2.37-2.46q-1.9-2-3.78-4A366.8,366.8,0,0,1,658.35,447,274.87,274.87,0,0,0,527.28,623a170.11,170.11,0,0,0-55.41,21.31A365.18,365.18,0,0,0,567.52,859.81Z"/></g></svg>