<svg id="Layer_1" data-name="Layer 1" xmlns="http://www.w3.org/2000/svg" viewBox="0 0 1002.16 421.99"><defs><style>.cls-1{fill:#059941;}.cls-2{fill:#055a85;}.cls-3{fill:none;}.cls-4{fill:#007741;}</style></defs><rect class="cls-1" x="356.43" y="291.59" width="555.55" height="40.21"/><polygon class="cls-2" points="911.98 291.59 885.02 331.81 911.98 331.81 911.98 291.59"/><path class="cls-1" d="M119.64,315.89c-2.58,3.24-5.38,4.81-8.55,4.81a9,9,0,0,1-6.22-2.37,8.35,8.35,0,0,1-2.61-6.63,8.46,8.46,0,0,1,2.61-6.67,9.08,9.08,0,0,1,6.36-2.41,11.54,11.54,0,0,1,4.74,1.09,11.37,11.37,0,0,1,4,3.05l.78.93,6.61-8.65-.57-.6a21.49,21.49,0,0,0-7.54-5.12,22.54,22.54,0,0,0-8.47-1.73,20.77,20.77,0,0,0-14.48,5.6,20.37,20.37,0,0,0-.07,29.08A21.13,21.13,0,0,0,111,331.8c5.81,0,11.26-2.6,16.21-7.74l.62-.64L120.36,315Z"/><path class="cls-1" d="M156.41,313.18c0,2.57-.67,4.53-2,5.83a6.44,6.44,0,0,1-4.71,2c-2.28,0-5.31-.79-5.31-7.59v-21.8H132.06v24.07c0,5.27,1.49,9.33,4.45,12.06a15.48,15.48,0,0,0,10.89,4.08,12.29,12.29,0,0,0,9-3.75v3.75h12.34V291.59H156.41Z"/><path class="cls-1" d="M202.15,310.08a24.71,24.71,0,0,0-3.69-1.9c-1-.4-2.72-1-5.07-1.71a31,31,0,0,1-4.86-1.86c-.9-.49-1-1-1-1.43,0-1.1,1.28-1.66,3.83-1.66a16.1,16.1,0,0,1,9.07,3.14l.87.6,4.82-8.59-.74-.5a24.35,24.35,0,0,0-13.64-4.58A17.83,17.83,0,0,0,180.44,295a11.14,11.14,0,0,0-4.51,9.14,9.5,9.5,0,0,0,4.66,8.57,27.27,27.27,0,0,0,3.82,2.08c1.12.47,2.72,1,4.78,1.68a17.72,17.72,0,0,1,4.44,1.95c.8.54,1.2,1.09,1.2,1.62a1.47,1.47,0,0,1-.75,1.3,4.65,4.65,0,0,1-2.63.63,19,19,0,0,1-11.76-4.28l-.8-.62-5.65,8.05.7.57a26.6,26.6,0,0,0,8.38,4.54,28.35,28.35,0,0,0,8.92,1.53,16.65,16.65,0,0,0,10.86-3.52,11.79,11.79,0,0,0,4.39-9.55c0-4-1.46-6.9-4.34-8.65"/><path class="cls-1" d="M239.81,315.89c-2.59,3.24-5.39,4.81-8.56,4.81a9,9,0,0,1-6.22-2.37,8.35,8.35,0,0,1-2.61-6.63A8.46,8.46,0,0,1,225,305a9.08,9.08,0,0,1,6.36-2.41,11.89,11.89,0,0,1,8.78,4.14l.77.93,6.62-8.65-.58-.6a21.49,21.49,0,0,0-7.54-5.12,22.54,22.54,0,0,0-8.47-1.73,20.78,20.78,0,0,0-14.48,5.6,20.37,20.37,0,0,0-.07,29.08,21.15,21.15,0,0,0,14.76,5.53c5.81,0,11.27-2.6,16.22-7.74l.62-.64-7.5-8.42Z"/><path class="cls-1" d="M284.06,296.45a21,21,0,0,0-27.56.57c-3.94,3.62-5.94,8.55-5.94,14.64s2,11,5.82,14.67A20.58,20.58,0,0,0,271,331.8a21.78,21.78,0,0,0,15.39-6.19l.69-.66L280,317.22l-.71.74a10.91,10.91,0,0,1-8.28,3.36,9.16,9.16,0,0,1-5.51-1.75,6.5,6.5,0,0,1-2.5-3.22h26.77v-6.48c0-5.65-1.91-10.16-5.68-13.42M277.16,307h-14a6.07,6.07,0,0,1,2.35-3.29,8.31,8.31,0,0,1,5.05-1.68,6.87,6.87,0,0,1,4.59,1.57,6,6,0,0,1,2,3.4"/><path class="cls-1" d="M327.66,296a14,14,0,0,0-10.53-4.44,14.91,14.91,0,0,0-9.59,3.54v-3.54H295.27V331.8h12.27V309.59c0-2.61.68-4.59,2-5.89a6.53,6.53,0,0,1,4.74-2c2.28,0,5.32.78,5.32,7.59V331.8h12.27V307.73c0-4.83-1.42-8.77-4.23-11.7"/><path class="cls-1" d="M186.83,217.78a50.31,50.31,0,0,1,0-71.56c-14.52-5.33-26.44-13.84-34.07-24.27a91.83,91.83,0,0,0,0,120.09C160.39,231.61,172.31,223.11,186.83,217.78Z"/><path class="cls-3" d="M291.67,122c-7.62,10.43-19.55,18.94-34.06,24.27a50.34,50.34,0,0,1,0,71.56c14.51,5.33,26.44,13.83,34.06,24.26a91.8,91.8,0,0,0,0-120.09Z"/><circle class="cls-4" cx="222.22" cy="182" r="29.55"/><path class="cls-4" d="M257.61,217.78a50.31,50.31,0,0,1-70.78,0c-14.52,5.33-26.44,13.83-34.07,24.26a91.66,91.66,0,0,0,69.46,31.77A91.69,91.69,0,0,0,291.67,242C284.05,231.61,272.12,223.11,257.61,217.78Z"/><path class="cls-1" d="M186.83,146.22a50.31,50.31,0,0,1,70.78,0c14.51-5.33,26.44-13.84,34.06-24.27h0c-.29-.34-.59-.68-.89-1-.07-.08-.14-.15-.2-.23-.24-.26-.47-.52-.71-.77l-.24-.26q-.39-.44-.81-.87l-.09-.1-.93-1a1.89,1.89,0,0,1-.2-.2l-.75-.75-.26-.25-.8-.78-.15-.15-1-.92-.18-.16-.8-.74-.27-.24-.81-.71-.2-.17c-.33-.3-.67-.59-1-.88l-.16-.12c-.28-.24-.57-.49-.87-.72a3.11,3.11,0,0,0-.28-.23l-.81-.66-.24-.19-1-.82-.11-.08-.95-.72-.29-.21-.84-.61-.26-.19-1.1-.77h0l-1.25-.84-.26-.18-1.27-.83-.1-.06-1.21-.76-.26-.16c-.43-.27-.87-.53-1.3-.78l-.17-.1-1.19-.69-.25-.14-1.32-.73-.22-.11-1.2-.64-.24-.12c-.44-.23-.89-.46-1.35-.68l-.25-.13-1.22-.58-.22-.11-1.37-.63-.29-.12-1.26-.56-.17-.07-1.41-.58-.31-.12L255,96.21l-.11,0-1.44-.53-.32-.12c-1-.34-1.94-.67-2.92-1l-.34-.1L248.4,94l-.08,0-1.41-.4-.34-.1c-.49-.13-1-.27-1.49-.39l-.17,0-1.36-.33-.34-.08-1.49-.34-.24-.05-1.34-.27-.32-.07-1.52-.28-.29,0-1.33-.22-.31,0-1.53-.22-.32,0-1.36-.17-.27,0-1.55-.16-.35,0-1.41-.12-.21,0-1.57-.11-.38,0-1.48-.07h-.13l-1.59-.05h-4l-1.6.05h-.13l-1.48.07-.38,0-1.57.11-.21,0-1.4.12-.36,0-1.55.16-.27,0-1.36.18-.32,0-1.53.22-.31,0-1.33.22-.29,0-1.52.28-.32.07-1.34.27-.24.05-1.5.34-.33.08-1.37.34-.17,0-1.48.39-.34.1L196.1,94,196,94q-.75.21-1.47.45l-.34.11q-.74.22-1.47.48h0l-1.44.5-.33.12-1.43.53-.12,0-1.33.52-.31.12-1.4.58-.18.08-1.25.55-.3.13c-.45.2-.91.41-1.36.63l-.23.1-1.21.59-.26.12-1.34.68-.26.13-1.18.63-.22.12-1.32.72-.27.15-1.18.68a1,1,0,0,1-.17.1l-1.29.78-.27.17-1.2.75-.1.07-1.27.82-.28.19-1.24.84h0l-1.09.76-.28.21-.82.59-.3.22-.95.72-.1.08-1,.82-.25.19-.8.65-.29.23-.87.72-.15.13-1,.87-.2.18-.8.7-.27.25-.81.74-.17.16-1,.92-.15.14-.8.78-.26.25-.75.76-.19.19c-.32.32-.63.65-.94,1l-.09.1-.81.87-.24.26c-.24.25-.47.51-.7.77l-.21.23c-.3.33-.59.67-.89,1h0C160.39,132.38,172.31,140.89,186.83,146.22Z"/><path class="cls-2" d="M844.83,160.69c-25.31-5.42-31.51-8.26-31.51-17.3,0-6.72,5.94-11.62,18.08-11.62,16,0,34.09,5.94,50.62,17.82l25.05-35.39c-19.63-15.75-43.65-24-74.38-24-42.1,0-70,23-70,58.36,0,36.93,29.7,47,68.18,55.79,24.54,5.68,30.73,7,30.73,15.49,0,7.75-7.23,12.4-20.91,12.4-20.92,0-40.55-7.49-58.63-21.7l-27.89,33.32c22.47,19.89,52.68,30,84.71,30,44.42,0,73.09-21.95,73.09-59.4C912,180.58,886.15,169.47,844.83,160.69Z"/><polygon class="cls-2" points="643.62 174.9 596.1 90.19 546 90.19 546 230.61 546 267.61 546 273.81 596.1 273.81 596.1 267.61 596.1 230.61 596.1 172.57 643.62 257.28 691.14 172.57 691.14 230.61 691.14 267.61 691.14 273.81 741.24 273.81 741.24 267.61 741.24 230.61 741.24 90.19 691.14 90.19 643.62 174.9"/><polygon class="cls-2" points="471.36 93.29 471.36 157.85 438.94 157.85 406.53 157.85 406.53 93.29 406.53 90.19 356.43 90.19 356.43 93.29 356.43 270.71 356.43 273.81 406.53 273.81 406.53 270.71 406.53 202.53 438.94 202.53 471.36 202.53 471.36 270.71 471.36 273.81 521.46 273.81 521.46 270.71 521.46 93.29 521.46 90.19 471.36 90.19 471.36 93.29"/></svg>